<?xml version="1.0" encoding="UTF-8"?>
<!-- Generator: visioncortex VTracer 0.6.3 -->
<svg version="1.1" xmlns="http://www.w3.org/2000/svg" width="1280" height="1280">
<path d="M0 0 C1.86 -0 3.71 -0.01 5.57 -0.01 C10.65 -0.02 15.72 -0.01 20.79 -0.01 C26.32 -0 31.85 -0.01 37.39 -0.01 C47.07 -0.02 56.75 -0.02 66.44 -0.01 C80.16 -0.01 93.89 -0.01 107.61 -0.02 C132.52 -0.03 157.43 -0.03 182.33 -0.02 C183.07 -0.02 183.81 -0.02 184.57 -0.02 C185.67 -0.02 185.67 -0.02 186.8 -0.02 C209.31 -0.01 231.82 -0.01 254.33 -0.02 C255.84 -0.02 257.35 -0.02 258.86 -0.02 C264.92 -0.02 270.98 -0.02 277.04 -0.02 C293.99 -0.02 310.94 -0.02 327.88 -0.02 C328.65 -0.02 329.42 -0.02 330.22 -0.02 C354.8 -0.02 379.38 -0.02 403.96 -0.02 C404.75 -0.02 405.55 -0.02 406.37 -0.02 C419.31 -0.01 432.26 -0.01 445.2 -0.01 C496.52 0 547.85 0 599.17 -0.01 C612.11 -0.01 625.04 -0.01 637.98 -0.02 C638.78 -0.02 639.57 -0.02 640.39 -0.02 C664.95 -0.02 689.5 -0.02 714.06 -0.02 C714.83 -0.02 715.6 -0.02 716.39 -0.02 C733.32 -0.02 750.25 -0.02 767.17 -0.02 C773.23 -0.02 779.29 -0.02 785.34 -0.02 C786.85 -0.02 788.36 -0.02 789.86 -0.02 C812.37 -0.01 834.87 -0.02 857.37 -0.02 C858.48 -0.02 858.48 -0.02 859.6 -0.02 C860.71 -0.02 860.71 -0.02 861.83 -0.02 C886.67 -0.03 911.5 -0.02 936.34 -0.01 C950.65 -0.01 964.97 -0.01 979.28 -0.02 C988.84 -0.02 998.41 -0.02 1007.97 -0.01 C1013.42 -0 1018.86 -0 1024.31 -0.01 C1029.28 -0.02 1034.24 -0.01 1039.2 -0 C1040.98 -0 1042.75 -0 1044.53 -0.01 C1070.65 -0.08 1093.02 3.98 1115.97 17.25 C1117.36 18.02 1117.36 18.02 1118.79 18.81 C1119.51 19.28 1120.23 19.76 1120.97 20.25 C1120.97 20.91 1120.97 21.57 1120.97 22.25 C1121.59 22.56 1122.21 22.87 1122.84 23.19 C1124.22 23.88 1125.59 24.56 1126.97 25.25 C1126.97 25.91 1126.97 26.57 1126.97 27.25 C1127.61 27.52 1128.25 27.79 1128.91 28.06 C1130.97 29.25 1130.97 29.25 1131.97 32.25 C1132.96 32.58 1133.95 32.91 1134.97 33.25 C1134.97 33.91 1134.97 34.57 1134.97 35.25 C1135.63 35.25 1136.29 35.25 1136.97 35.25 C1137.63 36.9 1138.29 38.55 1138.97 40.25 C1139.63 40.25 1140.29 40.25 1140.97 40.25 C1143.9 44.07 1146.41 48.18 1148.97 52.25 C1149.45 53.01 1149.93 53.78 1150.43 54.56 C1155.5 63.1 1158.65 72.45 1159.97 82.25 C1160.3 82.58 1160.63 82.91 1160.97 83.25 C1161.07 86.2 1161.11 89.12 1161.1 92.06 C1161.1 92.95 1161.1 93.83 1161.1 94.74 C1161.11 96.62 1161.1 98.49 1161.1 100.36 C1161.09 103.24 1161.1 106.12 1161.11 108.99 C1161.1 110.81 1161.1 112.62 1161.1 114.44 C1161.1 115.74 1161.1 115.74 1161.11 117.07 C1161.08 123.14 1161.08 123.14 1159.97 124.25 C1159.57 126.14 1159.57 126.14 1159.16 128.06 C1156.15 141.66 1150.29 155.63 1140.97 166.25 C1140.31 166.25 1139.65 166.25 1138.97 166.25 C1138.57 167.4 1138.57 167.4 1138.16 168.56 C1137.02 171.14 1136.15 172.52 1133.97 174.25 C1133.31 174.25 1132.65 174.25 1131.97 174.25 C1131.57 175.21 1131.57 175.21 1131.16 176.19 C1129.97 178.25 1129.97 178.25 1126.97 179.25 C1126.97 179.91 1126.97 180.57 1126.97 181.25 C1124.86 182.95 1122.75 184.52 1120.53 186.06 C1119.89 186.52 1119.24 186.97 1118.58 187.43 C1095.3 203.58 1069.55 206.58 1041.94 206.5 C1040.08 206.51 1038.22 206.51 1036.37 206.51 C1031.29 206.52 1026.22 206.52 1021.15 206.51 C1015.61 206.5 1010.08 206.51 1004.55 206.52 C994.87 206.52 985.18 206.52 975.5 206.52 C961.77 206.51 948.05 206.51 934.32 206.52 C909.42 206.53 884.51 206.53 859.6 206.52 C858.87 206.52 858.13 206.52 857.37 206.52 C856.26 206.52 856.26 206.52 855.13 206.52 C832.62 206.52 810.11 206.52 787.61 206.52 C786.1 206.52 784.59 206.52 783.08 206.52 C777.02 206.52 770.96 206.52 764.89 206.52 C747.95 206.52 731 206.52 714.06 206.53 C713.28 206.53 712.51 206.53 711.72 206.53 C687.14 206.53 662.56 206.52 637.98 206.52 C637.18 206.52 636.39 206.52 635.56 206.52 C622.62 206.52 609.68 206.51 596.74 206.51 C545.41 206.5 494.09 206.5 442.76 206.51 C429.83 206.51 416.89 206.52 403.96 206.52 C403.16 206.52 402.36 206.52 401.54 206.52 C376.99 206.52 352.44 206.53 327.88 206.53 C327.11 206.53 326.34 206.53 325.54 206.53 C308.62 206.52 291.69 206.52 274.76 206.52 C268.71 206.52 262.65 206.52 256.59 206.52 C255.09 206.52 253.58 206.52 252.07 206.52 C229.57 206.52 207.07 206.52 184.57 206.52 C183.83 206.52 183.09 206.52 182.33 206.52 C181.6 206.52 180.86 206.52 180.1 206.52 C155.27 206.53 130.43 206.53 105.6 206.52 C91.28 206.51 76.97 206.51 62.66 206.52 C53.09 206.52 43.53 206.52 33.97 206.51 C28.52 206.51 23.07 206.51 17.63 206.51 C12.66 206.52 7.7 206.52 2.74 206.51 C0.96 206.5 -0.82 206.51 -2.59 206.51 C-32.74 206.59 -60.35 201.3 -84.03 181.25 C-84.68 180.74 -85.32 180.23 -85.99 179.7 C-87.38 178.6 -88.71 177.43 -90.03 176.25 C-90.03 175.59 -90.03 174.93 -90.03 174.25 C-90.69 174.25 -91.35 174.25 -92.03 174.25 C-97.03 168.78 -97.03 168.78 -97.03 166.25 C-97.69 166.25 -98.35 166.25 -99.03 166.25 C-101.96 162.43 -104.47 158.32 -107.03 154.25 C-107.51 153.49 -108 152.73 -108.49 151.94 C-113.56 143.41 -116.71 134.06 -118.03 124.25 C-118.36 123.92 -118.69 123.59 -119.03 123.25 C-119.13 120.31 -119.17 117.38 -119.16 114.44 C-119.17 113.56 -119.17 112.67 -119.17 111.76 C-119.17 109.89 -119.17 108.01 -119.16 106.14 C-119.16 103.26 -119.16 100.39 -119.17 97.51 C-119.17 95.69 -119.17 93.88 -119.16 92.06 C-119.17 91.2 -119.17 90.33 -119.17 89.44 C-119.15 83.37 -119.15 83.37 -118.03 82.25 C-117.76 80.99 -117.5 79.74 -117.22 78.44 C-114.21 64.84 -108.35 50.87 -99.03 40.25 C-98.37 40.25 -97.71 40.25 -97.03 40.25 C-96.69 39.17 -96.69 39.17 -96.34 38.06 C-91.47 27.63 -76.79 18.61 -67.03 13.25 C-66.24 12.76 -65.45 12.26 -64.63 11.75 C-45.21 0.54 -21.81 -0.06 0 0 Z " fill="#000000" transform="translate(119.03134155273438,536.7483177185059)"/>
<path d="M0 0 C1.91 -0 3.82 -0.01 5.73 -0.02 C10.97 -0.03 16.21 -0.02 21.45 -0.01 C27.16 -0.01 32.86 -0.02 38.57 -0.03 C48.57 -0.04 58.56 -0.05 68.56 -0.04 C79.29 -0.04 90.01 -0.04 100.74 -0.05 C101.75 -0.05 101.75 -0.05 102.79 -0.05 C105.55 -0.05 108.31 -0.05 111.07 -0.06 C139.1 -0.08 167.12 -0.09 195.14 -0.09 C199.01 -0.09 202.88 -0.09 206.75 -0.09 C207.52 -0.09 208.29 -0.09 209.08 -0.09 C226.12 -0.08 243.17 -0.09 260.21 -0.1 C264.11 -0.1 268 -0.1 271.89 -0.1 C273.46 -0.1 275.02 -0.1 276.58 -0.1 C277.74 -0.1 277.74 -0.1 278.93 -0.1 C280.49 -0.1 282.06 -0.1 283.63 -0.1 C328.07 -0.12 372.52 -0.13 416.97 -0.12 C417.79 -0.12 418.62 -0.12 419.47 -0.12 C428.64 -0.12 437.82 -0.12 447 -0.12 C449.51 -0.12 452.02 -0.12 454.53 -0.12 C456.21 -0.12 457.88 -0.12 459.56 -0.12 C512.55 -0.11 565.54 -0.13 618.53 -0.16 C631.88 -0.17 645.23 -0.18 658.58 -0.18 C659.81 -0.18 659.81 -0.18 661.07 -0.18 C686.41 -0.2 711.75 -0.21 737.09 -0.21 C737.89 -0.21 738.69 -0.21 739.51 -0.21 C756.98 -0.21 774.45 -0.21 791.92 -0.21 C798.17 -0.21 804.42 -0.21 810.67 -0.21 C812.23 -0.21 813.78 -0.21 815.34 -0.21 C840.1 -0.21 864.87 -0.22 889.63 -0.24 C914.58 -0.26 939.53 -0.26 964.48 -0.24 C967.93 -0.24 971.38 -0.24 974.83 -0.24 C975.5 -0.24 976.18 -0.24 976.88 -0.24 C988.22 -0.23 999.56 -0.24 1010.9 -0.26 C1020.77 -0.27 1030.65 -0.27 1040.52 -0.25 C1046.15 -0.24 1051.77 -0.24 1057.4 -0.26 C1062.52 -0.28 1067.65 -0.27 1072.77 -0.25 C1074.61 -0.24 1076.44 -0.25 1078.28 -0.26 C1093.67 -0.37 1108.4 1.97 1122.05 9.57 C1123.02 10.08 1123.02 10.08 1124.02 10.61 C1125.74 11.52 1127.46 12.45 1129.18 13.38 C1130.51 14.06 1131.84 14.73 1133.18 15.38 C1133.18 16.04 1133.18 16.7 1133.18 17.38 C1133.84 17.57 1134.5 17.75 1135.18 17.95 C1138.73 19.65 1141.22 21.88 1144.11 24.53 C1146.2 26.45 1146.2 26.45 1148.66 28.29 C1151.31 30.5 1153.35 32.8 1155.49 35.51 C1156.19 36.38 1156.88 37.25 1157.6 38.14 C1159.18 40.38 1159.18 40.38 1159.18 42.38 C1159.84 42.38 1160.5 42.38 1161.18 42.38 C1161.18 43.37 1161.18 44.36 1161.18 45.38 C1161.84 45.38 1162.5 45.38 1163.18 45.38 C1163.51 47.03 1163.84 48.68 1164.18 50.38 C1164.84 50.38 1165.5 50.38 1166.18 50.38 C1173 62.99 1178.44 76.64 1178.55 91.1 C1178.56 92.32 1178.56 92.32 1178.57 93.56 C1178.59 95.28 1178.6 97 1178.6 98.72 C1178.61 101.28 1178.66 103.85 1178.71 106.42 C1178.86 120.95 1176.01 133.91 1169.36 146.95 C1168.9 147.9 1168.9 147.9 1168.42 148.88 C1167.68 150.39 1166.93 151.89 1166.18 153.38 C1165.52 153.38 1164.86 153.38 1164.18 153.38 C1164.09 153.93 1164 154.48 1163.91 155.04 C1158.5 172.24 1137.09 186.28 1122.11 194.2 C1120.48 194.95 1118.83 195.68 1117.18 196.38 C1116.17 196.81 1115.16 197.24 1114.12 197.68 C1098.24 203.9 1081.72 204.83 1064.84 204.76 C1062.96 204.76 1061.08 204.77 1059.2 204.77 C1054.07 204.79 1048.95 204.78 1043.82 204.77 C1038.23 204.76 1032.63 204.77 1027.04 204.78 C1017.25 204.79 1007.46 204.79 997.67 204.78 C987.18 204.77 976.68 204.77 966.18 204.78 C965.52 204.78 964.85 204.78 964.17 204.78 C961.46 204.78 958.75 204.78 956.05 204.78 C930.87 204.8 905.69 204.8 880.51 204.79 C879.4 204.79 879.4 204.79 878.26 204.79 C877.14 204.79 877.14 204.79 875.99 204.79 C853.24 204.78 830.49 204.78 807.73 204.78 C806.21 204.78 804.68 204.79 803.16 204.79 C797.03 204.79 790.9 204.79 784.77 204.79 C767.64 204.79 750.5 204.79 733.37 204.79 C732.2 204.79 732.2 204.79 731.01 204.79 C706.16 204.79 681.31 204.79 656.46 204.78 C655.66 204.78 654.85 204.78 654.02 204.78 C640.94 204.78 627.86 204.78 614.77 204.77 C562.89 204.76 511 204.76 459.12 204.77 C446.04 204.78 432.97 204.78 419.89 204.78 C419.08 204.79 418.28 204.79 417.45 204.79 C392.63 204.79 367.8 204.79 342.98 204.79 C342.2 204.79 341.42 204.79 340.62 204.79 C323.5 204.79 306.39 204.79 289.28 204.79 C283.15 204.79 277.03 204.79 270.91 204.78 C269.38 204.78 267.86 204.78 266.34 204.78 C243.59 204.78 220.84 204.78 198.1 204.79 C197.35 204.79 196.61 204.79 195.84 204.79 C195.09 204.79 194.35 204.79 193.58 204.79 C168.48 204.8 143.37 204.8 118.26 204.78 C115.57 204.78 112.87 204.78 110.17 204.78 C109.17 204.78 109.17 204.78 108.16 204.78 C97.06 204.77 85.96 204.78 74.86 204.78 C65.19 204.79 55.52 204.79 45.85 204.77 C40.35 204.77 34.84 204.76 29.34 204.77 C24.32 204.78 19.3 204.78 14.28 204.77 C12.49 204.76 10.69 204.76 8.9 204.77 C-23.05 204.9 -50.88 196.31 -74.07 173.51 C-87.82 159.61 -87.82 159.61 -87.82 153.38 C-88.48 153.38 -89.14 153.38 -89.82 153.38 C-96.83 140.44 -102.18 126.71 -102.05 111.89 C-102.05 111.01 -102.05 110.14 -102.05 109.24 C-102.05 107.41 -102.04 105.58 -102.03 103.74 C-102.01 100.93 -102.01 98.11 -102.01 95.3 C-102 93.52 -102 91.73 -101.99 89.95 C-101.99 89.1 -101.99 88.26 -101.99 87.39 C-101.94 81.5 -101.94 81.5 -100.82 80.38 C-100.72 79.39 -100.62 78.4 -100.51 77.38 C-100 73.48 -98.6 70.33 -96.94 66.79 C-95.4 63.46 -94.08 60.06 -92.75 56.64 C-91.87 54.5 -90.89 52.44 -89.82 50.38 C-89.16 50.38 -88.5 50.38 -87.82 50.38 C-87.49 48.73 -87.16 47.08 -86.82 45.38 C-86.16 45.38 -85.5 45.38 -84.82 45.38 C-84.57 44.66 -84.31 43.93 -84.05 43.19 C-80.53 35.13 -73.61 28.77 -66.82 23.38 C-66.09 22.8 -65.36 22.22 -64.61 21.62 C-59.14 17.38 -59.14 17.38 -56.82 17.38 C-56.82 16.72 -56.82 16.06 -56.82 15.38 C-37.65 5.58 -21.71 -0.08 0 0 Z " fill="#000000" transform="translate(101.82404518127441,66.61688995361328)"/>
<path d="M0 0 C1.88 -0 3.76 -0.01 5.63 -0.01 C10.76 -0.02 15.89 -0.02 21.02 -0.01 C26.61 -0 32.2 -0.01 37.8 -0.02 C47.59 -0.03 57.38 -0.03 67.17 -0.02 C77.67 -0.01 88.16 -0.01 98.66 -0.02 C99.33 -0.02 99.99 -0.02 100.68 -0.02 C103.38 -0.02 106.09 -0.02 108.8 -0.02 C133.98 -0.04 159.16 -0.04 184.34 -0.03 C185.09 -0.03 185.83 -0.03 186.6 -0.03 C187.35 -0.03 188.09 -0.03 188.86 -0.03 C211.62 -0.02 234.38 -0.02 257.13 -0.02 C258.66 -0.02 260.19 -0.02 261.71 -0.02 C267.84 -0.03 273.97 -0.03 280.1 -0.03 C297.23 -0.03 314.36 -0.03 331.5 -0.03 C332.28 -0.03 333.06 -0.03 333.86 -0.03 C358.71 -0.03 383.56 -0.03 408.42 -0.02 C409.62 -0.02 409.62 -0.02 410.86 -0.02 C423.94 -0.02 437.03 -0.02 450.11 -0.01 C502 0 553.9 0 605.79 -0.01 C618.86 -0.02 631.94 -0.02 645.02 -0.02 C645.82 -0.02 646.63 -0.02 647.46 -0.02 C672.28 -0.03 697.11 -0.03 721.93 -0.03 C723.1 -0.03 723.1 -0.03 724.3 -0.03 C741.41 -0.03 758.53 -0.03 775.64 -0.03 C781.76 -0.03 787.89 -0.03 794.01 -0.02 C795.54 -0.02 797.06 -0.02 798.58 -0.02 C821.33 -0.02 844.08 -0.02 866.83 -0.03 C867.95 -0.03 867.95 -0.03 869.09 -0.03 C870.21 -0.03 870.21 -0.03 871.35 -0.03 C896.46 -0.04 921.57 -0.04 946.68 -0.02 C949.38 -0.02 952.07 -0.02 954.77 -0.02 C955.44 -0.02 956.1 -0.02 956.78 -0.02 C967.88 -0.01 978.99 -0.01 990.09 -0.02 C999.76 -0.03 1009.43 -0.03 1019.1 -0.01 C1024.6 -0.01 1030.11 -0 1035.62 -0.01 C1040.64 -0.02 1045.66 -0.02 1050.68 -0 C1052.47 -0 1054.27 -0 1056.06 -0.01 C1085.45 -0.13 1113.8 6.79 1135.41 27.95 C1136.2 28.75 1136.98 29.55 1137.78 30.38 C1138.36 30.92 1138.93 31.46 1139.52 32.01 C1144.65 36.87 1149.09 42.35 1152.78 48.38 C1152.78 49.37 1152.78 50.36 1152.78 51.38 C1153.44 51.38 1154.1 51.38 1154.78 51.38 C1161.61 63.98 1167.05 77.63 1167.16 92.09 C1167.17 93.31 1167.17 93.31 1167.18 94.56 C1167.2 96.28 1167.21 97.99 1167.21 99.71 C1167.22 102.28 1167.27 104.84 1167.32 107.41 C1167.46 121.95 1164.61 134.91 1157.97 147.94 C1157.5 148.9 1157.5 148.9 1157.03 149.88 C1156.29 151.38 1155.54 152.88 1154.78 154.38 C1154.12 154.38 1153.46 154.38 1152.78 154.38 C1152.71 154.92 1152.63 155.45 1152.55 156.01 C1151.49 159.3 1149.63 161.57 1147.53 164.32 C1146.77 165.33 1146 166.35 1145.21 167.4 C1142.88 170.26 1140.43 172.81 1137.78 175.38 C1137.05 176.14 1136.32 176.91 1135.57 177.69 C1131.2 182.23 1127.36 185.49 1121.78 188.38 C1120.36 189.35 1118.94 190.33 1117.53 191.32 C1101.29 202.14 1083.34 205.14 1064.22 205.01 C1062.31 205.01 1060.39 205.02 1058.48 205.03 C1053.24 205.05 1048.01 205.04 1042.77 205.02 C1037.07 205.01 1031.36 205.02 1025.66 205.04 C1015.67 205.05 1005.67 205.05 995.68 205.04 C984.97 205.03 974.26 205.02 963.55 205.03 C962.53 205.04 962.53 205.04 961.49 205.04 C958.73 205.04 955.97 205.04 953.2 205.04 C927.51 205.07 901.82 205.07 876.12 205.06 C875.36 205.06 874.6 205.06 873.82 205.06 C873.06 205.06 872.3 205.06 871.51 205.06 C848.29 205.04 825.07 205.04 801.85 205.05 C800.29 205.05 798.73 205.05 797.18 205.05 C790.92 205.05 784.67 205.05 778.42 205.05 C760.94 205.06 743.46 205.06 725.98 205.06 C725.18 205.06 724.38 205.06 723.56 205.06 C698.21 205.06 672.85 205.06 647.5 205.05 C646.67 205.05 645.85 205.05 645 205.05 C631.65 205.04 618.3 205.03 604.95 205.03 C552 205 499.05 205.01 446.11 205.03 C432.76 205.04 419.42 205.04 406.07 205.05 C405.25 205.05 404.43 205.05 403.58 205.05 C378.25 205.06 352.92 205.06 327.59 205.06 C326.8 205.06 326 205.06 325.18 205.06 C307.72 205.06 290.26 205.06 272.8 205.05 C266.55 205.05 260.3 205.05 254.05 205.05 C252.5 205.05 250.95 205.05 249.39 205.05 C226.18 205.04 202.96 205.05 179.75 205.06 C178.99 205.06 178.23 205.06 177.45 205.06 C176.69 205.06 175.93 205.06 175.15 205.06 C149.52 205.07 123.9 205.07 98.28 205.04 C95.53 205.04 92.78 205.04 90.02 205.03 C89.35 205.03 88.67 205.03 87.97 205.03 C76.64 205.02 65.31 205.03 53.98 205.05 C44.12 205.06 34.25 205.05 24.39 205.03 C18.77 205.02 13.15 205.01 7.53 205.03 C2.41 205.05 -2.71 205.04 -7.83 205.01 C-9.67 205.01 -11.5 205.01 -13.33 205.03 C-28.72 205.13 -43.44 202.78 -57.09 195.19 C-57.74 194.85 -58.39 194.51 -59.06 194.15 C-60.78 193.24 -62.5 192.31 -64.22 191.38 C-65.55 190.7 -66.88 190.03 -68.22 189.38 C-68.22 188.72 -68.22 188.06 -68.22 187.38 C-68.8 187.11 -69.38 186.83 -69.97 186.55 C-72.2 185.38 -74.09 184.09 -76.09 182.57 C-76.73 182.08 -77.36 181.6 -78.02 181.11 C-78.75 180.54 -79.47 179.97 -80.22 179.38 C-81.66 178.25 -81.66 178.25 -83.14 177.1 C-86.45 174.32 -89.01 171.14 -91.59 167.69 C-92.27 166.82 -92.27 166.82 -92.95 165.93 C-96.22 161.64 -96.22 161.64 -96.22 159.38 C-96.88 159.38 -97.54 159.38 -98.22 159.38 C-98.55 157.73 -98.88 156.08 -99.22 154.38 C-99.88 154.38 -100.54 154.38 -101.22 154.38 C-104.66 148 -107.27 141.67 -109.42 134.75 C-110 132.45 -110 132.45 -111.22 131.38 C-111.55 129.04 -111.88 126.71 -112.22 124.38 C-112.55 124.05 -112.88 123.72 -113.22 123.38 C-113.51 117.97 -113.53 112.56 -113.57 107.15 C-113.58 105.33 -113.61 103.51 -113.65 101.69 C-114.22 74.6 -104.14 51.06 -85.64 31.28 C-62.49 7.51 -32.22 -0.14 0 0 Z " fill="#000000" transform="translate(113.21595668792725,1008.6224765777588)"/>
</svg>
